<?xml version="1.0" encoding="utf-8"?>
<!-- Generator: Adobe Illustrator 27.5.0, SVG Export Plug-In . SVG Version: 6.00 Build 0)  -->
<svg version="1.1" id="katman_1" xmlns="http://www.w3.org/2000/svg" xmlns:xlink="http://www.w3.org/1999/xlink" x="0px" y="0px"
	 viewBox="0 0 289.19 219.26" style="enable-background:new 0 0 289.19 219.26;" xml:space="preserve">
<path d="M185.26,103.42c-0.73-0.35-1.48-0.69-2.23-1.01c-1.31-24.17-14.52-38.01-36.7-38.15c-0.1,0-0.2,0-0.3,0
	c-13.27,0-24.3,5.66-31.09,15.97l12.2,8.37c5.07-7.7,13.03-9.34,18.9-9.34c0.07,0,0.14,0,0.2,0c7.3,0.05,12.81,2.17,16.38,6.31
	c2.6,3.01,4.33,7.18,5.19,12.44c-6.47-1.1-13.48-1.44-20.96-1.01c-21.09,1.21-34.64,13.51-33.73,30.6c0.46,8.67,4.78,16.13,12.16,21
	c6.24,4.12,14.27,6.13,22.62,5.68c11.03-0.6,19.68-4.81,25.71-12.51c4.58-5.84,7.48-13.41,8.76-22.95
	c5.26,3.17,9.15,7.35,11.3,12.36c3.66,8.53,3.87,22.54-7.57,33.97c-10.02,10.01-22.06,14.34-40.27,14.47
	c-20.19-0.15-35.46-6.62-45.39-19.25c-9.3-11.82-14.1-28.89-14.28-50.74c0.18-21.85,4.98-38.92,14.28-50.74
	c9.93-12.62,25.2-19.1,45.39-19.25c20.34,0.15,35.87,6.66,46.18,19.34c5.05,6.22,8.87,14.04,11.38,23.16l14.29-3.81
	c-3.05-11.22-7.84-20.9-14.36-28.92c-13.22-16.26-32.54-24.59-57.45-24.76h-0.1c-24.85,0.17-43.96,8.54-56.8,24.86
	c-11.42,14.52-17.32,34.73-17.52,60.06l0,0.06l0,0.06c0.2,25.33,6.09,45.54,17.52,60.06c12.84,16.32,31.95,24.68,56.8,24.86h0.1
	c22.1-0.15,37.67-5.94,50.5-18.76c16.79-16.77,16.28-37.79,10.75-50.7C203.18,115.9,195.61,108.39,185.26,103.42z M147.11,139.29
	c-9.24,0.52-18.84-3.63-19.32-12.51c-0.35-6.59,4.69-13.94,19.88-14.81c1.74-0.1,3.45-0.15,5.13-0.15c5.52,0,10.68,0.54,15.38,1.56
	C166.43,135.24,156.16,138.79,147.11,139.29z"/>
</svg>
